<svg xmlns="http://www.w3.org/2000/svg" viewBox="0 0 1200 630" width="1200" height="630">
  <defs>
    <linearGradient id="bg" x1="0" y1="0" x2="1" y2="1">
      <stop offset="0" stop-color="#0b2e3e"/><stop offset="1" stop-color="#0e6884"/>
    </linearGradient>
    <radialGradient id="glow" cx="0.8" cy="0.2" r="0.6">
      <stop offset="0" stop-color="#22c6ec" stop-opacity="0.55"/><stop offset="1" stop-color="#22c6ec" stop-opacity="0"/>
    </radialGradient>
  </defs>
  <rect width="1200" height="630" fill="url(#bg)"/>
  <rect width="1200" height="630" fill="url(#glow)"/>
  <g transform="translate(90,250)">
    <rect x="0" y="0" width="44" height="44" rx="11" fill="#06a4c4"/>
    <g fill="none" stroke="#fff" stroke-width="2.6" stroke-linecap="round"><path d="M22 22a4 4 0 1 0-4-4"/><path d="M22 22a4 4 0 1 1 4 4"/><path d="M22 22a4 4 0 1 0 4-4"/><path d="M22 22a4 4 0 1 1-4 4"/></g>
  </g>
  <text x="90" y="200" font-family="Sora, sans-serif" font-weight="800" font-size="84" fill="#ffffff">Tower Fan Reviews</text>
  <text x="90" y="420" font-family="Inter, sans-serif" font-weight="600" font-size="40" fill="#a5edfc">Independent UK tower fan reviews</text>
  <text x="90" y="478" font-family="Inter, sans-serif" font-weight="400" font-size="34" fill="#cff7fe">&amp; buying guides, stay cool for less</text>
</svg>
